<?xml version="1.0" encoding="UTF-8" standalone="no"?>
<!DOCTYPE svg PUBLIC "-//W3C//DTD SVG 1.1//EN"
 "http://www.w3.org/Graphics/SVG/1.1/DTD/svg11.dtd">
<!-- Generated by graphviz version 14.0.2 (20251019.1705)
 -->
<!-- Title: ETL_Dependencies Pages: 1 -->
<svg width="1451pt" height="1413pt"
 viewBox="0.00 0.00 1451.00 1413.00" xmlns="http://www.w3.org/2000/svg" xmlns:xlink="http://www.w3.org/1999/xlink">
<g id="graph0" class="graph" transform="scale(1 1) rotate(0) translate(4 1408.5)">
<title>ETL_Dependencies</title>
<polygon fill="white" stroke="none" points="-4,4 -4,-1408.5 1447.38,-1408.5 1447.38,4 -4,4"/>
<!-- etl&#45;config -->
<g id="node1" class="node">
<title>etl&#45;config</title>
<polygon fill="#2196f3" stroke="black" points="576.88,-0.5 576.88,-118 800.62,-118 800.62,-0.5 576.88,-0.5"/>
<text xml:space="preserve" text-anchor="middle" x="688.75" y="-102.6" font-family="Arial" font-size="12.00" fill="white">etl&#45;config</text>
<polyline fill="none" stroke="black" points="576.88,-95.75 800.62,-95.75"/>
<text xml:space="preserve" text-anchor="middle" x="688.75" y="-80.35" font-family="Arial" font-size="12.00" fill="white">Configuration</text>
<polyline fill="none" stroke="black" points="576.88,-73.5 800.62,-73.5"/>
<text xml:space="preserve" text-anchor="middle" x="688.75" y="-58.1" font-family="Arial" font-size="12.00" fill="white">Internal: —</text>
<polyline fill="none" stroke="black" points="576.88,-51.25 800.62,-51.25"/>
<text xml:space="preserve" text-anchor="start" x="584.88" y="-35.85" font-family="Arial" font-size="12.00" fill="white">External:</text>
<text xml:space="preserve" text-anchor="start" x="584.88" y="-21.6" font-family="Arial" font-size="12.00" fill="white">config · secrecy · serde · sqlx · thiserror</text>
<text xml:space="preserve" text-anchor="start" x="584.88" y="-7.35" font-family="Arial" font-size="12.00" fill="white">tokio&#45;postgres · utoipa(opt)</text>
</g>
<!-- etl&#45;postgres -->
<g id="node2" class="node">
<title>etl&#45;postgres</title>
<polygon fill="#4caf50" stroke="black" points="912.38,-227 912.38,-373 1181.12,-373 1181.12,-227 912.38,-227"/>
<text xml:space="preserve" text-anchor="middle" x="1046.75" y="-357.6" font-family="Arial" font-size="12.00" fill="white">etl&#45;postgres</text>
<polyline fill="none" stroke="black" points="912.38,-350.75 1181.12,-350.75"/>
<text xml:space="preserve" text-anchor="middle" x="1046.75" y="-335.35" font-family="Arial" font-size="12.00" fill="white">PostgreSQL Integration</text>
<polyline fill="none" stroke="black" points="912.38,-328.5 1181.12,-328.5"/>
<text xml:space="preserve" text-anchor="start" x="920.38" y="-313.1" font-family="Arial" font-size="12.00" fill="white">Internal:</text>
<text xml:space="preserve" text-anchor="start" x="920.38" y="-298.85" font-family="Arial" font-size="12.00" fill="white">etl&#45;config</text>
<polyline fill="none" stroke="black" points="912.38,-292 1181.12,-292"/>
<text xml:space="preserve" text-anchor="start" x="920.38" y="-276.6" font-family="Arial" font-size="12.00" fill="white">External:</text>
<text xml:space="preserve" text-anchor="start" x="920.38" y="-262.35" font-family="Arial" font-size="12.00" fill="white">bytes · chrono · pg_escape · serde · serde_json</text>
<text xml:space="preserve" text-anchor="start" x="920.38" y="-248.1" font-family="Arial" font-size="12.00" fill="white">sqlx · thiserror · tokio · tracing</text>
<text xml:space="preserve" text-anchor="start" x="920.38" y="-233.85" font-family="Arial" font-size="12.00" fill="white">tokio&#45;postgres (Materialize)</text>
</g>
<!-- etl&#45;postgres&#45;&gt;etl&#45;config -->
<g id="edge1" class="edge">
<title>etl&#45;postgres&#45;&gt;etl&#45;config</title>
<path fill="none" stroke="#2196f3" stroke-width="3" d="M938.37,-226.72C890.56,-194.84 834.76,-157.62 788.05,-126.47"/>
<polygon fill="#2196f3" stroke="#2196f3" stroke-width="3" points="790.11,-123.64 779.85,-121 786.23,-129.46 790.11,-123.64"/>
</g>
<!-- etl&#45;telemetry -->
<g id="node3" class="node">
<title>etl&#45;telemetry</title>
<polygon fill="#66bb6a" stroke="black" points="453.25,-227 453.25,-373 694.25,-373 694.25,-227 453.25,-227"/>
<text xml:space="preserve" text-anchor="middle" x="573.75" y="-357.6" font-family="Arial" font-size="12.00" fill="white">etl&#45;telemetry</text>
<polyline fill="none" stroke="black" points="453.25,-350.75 694.25,-350.75"/>
<text xml:space="preserve" text-anchor="middle" x="573.75" y="-335.35" font-family="Arial" font-size="12.00" fill="white">Observability</text>
<polyline fill="none" stroke="black" points="453.25,-328.5 694.25,-328.5"/>
<text xml:space="preserve" text-anchor="start" x="461.25" y="-313.1" font-family="Arial" font-size="12.00" fill="white">Internal:</text>
<text xml:space="preserve" text-anchor="start" x="461.25" y="-298.85" font-family="Arial" font-size="12.00" fill="white">etl&#45;config</text>
<polyline fill="none" stroke="black" points="453.25,-292 694.25,-292"/>
<text xml:space="preserve" text-anchor="start" x="461.25" y="-276.6" font-family="Arial" font-size="12.00" fill="white">External:</text>
<text xml:space="preserve" text-anchor="start" x="461.25" y="-262.35" font-family="Arial" font-size="12.00" fill="white">metrics&#45;exporter&#45;prometheus · serde_json</text>
<text xml:space="preserve" text-anchor="start" x="461.25" y="-248.1" font-family="Arial" font-size="12.00" fill="white">thiserror · tokio · tracing · tracing&#45;appender</text>
<text xml:space="preserve" text-anchor="start" x="461.25" y="-233.85" font-family="Arial" font-size="12.00" fill="white">tracing&#45;log · tracing&#45;subscriber</text>
</g>
<!-- etl&#45;telemetry&#45;&gt;etl&#45;config -->
<g id="edge2" class="edge">
<title>etl&#45;telemetry&#45;&gt;etl&#45;config</title>
<path fill="none" stroke="#2196f3" stroke-width="3" d="M608.57,-226.72C623.14,-196.47 640.02,-161.42 654.52,-131.3"/>
<polygon fill="#2196f3" stroke="#2196f3" stroke-width="3" points="657.64,-132.91 658.82,-122.38 651.33,-129.87 657.64,-132.91"/>
</g>
<!-- etl -->
<g id="node4" class="node">
<title>etl</title>
<polygon fill="#fdd835" stroke="black" points="267.5,-510.5 267.5,-699.25 522,-699.25 522,-510.5 267.5,-510.5"/>
<text xml:space="preserve" text-anchor="middle" x="394.75" y="-683.85" font-family="Arial" font-size="12.00">etl</text>
<polyline fill="none" stroke="black" points="267.5,-677 522,-677"/>
<text xml:space="preserve" text-anchor="middle" x="394.75" y="-661.6" font-family="Arial" font-size="12.00">Core Library</text>
<polyline fill="none" stroke="black" points="267.5,-654.75 522,-654.75"/>
<text xml:space="preserve" text-anchor="start" x="275.5" y="-639.35" font-family="Arial" font-size="12.00">Internal:</text>
<text xml:space="preserve" text-anchor="start" x="275.5" y="-625.1" font-family="Arial" font-size="12.00">etl&#45;config · etl&#45;postgres</text>
<polyline fill="none" stroke="black" points="267.5,-618.25 522,-618.25"/>
<text xml:space="preserve" text-anchor="start" x="275.5" y="-602.85" font-family="Arial" font-size="12.00">External:</text>
<text xml:space="preserve" text-anchor="start" x="275.5" y="-588.6" font-family="Arial" font-size="12.00">byteorder · bytes · chrono · const&#45;oid · fail</text>
<text xml:space="preserve" text-anchor="start" x="275.5" y="-574.35" font-family="Arial" font-size="12.00">futures · metrics · pg_escape · pin&#45;project&#45;lite</text>
<text xml:space="preserve" text-anchor="start" x="275.5" y="-560.1" font-family="Arial" font-size="12.00">postgres&#45;replication (Materialize) · ring</text>
<text xml:space="preserve" text-anchor="start" x="275.5" y="-545.85" font-family="Arial" font-size="12.00">rustls · rustls&#45;pemfile · serde_json · sqlx</text>
<text xml:space="preserve" text-anchor="start" x="275.5" y="-531.6" font-family="Arial" font-size="12.00">tokio · tokio&#45;postgres (Materialize)</text>
<text xml:space="preserve" text-anchor="start" x="275.5" y="-517.35" font-family="Arial" font-size="12.00">tokio&#45;rustls · tracing · uuid · x509&#45;cert</text>
</g>
<!-- etl&#45;&gt;etl&#45;config -->
<g id="edge3" class="edge">
<title>etl&#45;&gt;etl&#45;config</title>
<path fill="none" stroke="#2196f3" stroke-width="3" d="M377.67,-510.38C367.92,-429.42 366.31,-312.18 417.75,-226.5 450.63,-171.74 509.16,-132.51 563.43,-105.97"/>
<polygon fill="#2196f3" stroke="#2196f3" stroke-width="3" points="564.75,-109.22 572.28,-101.77 561.75,-102.89 564.75,-109.22"/>
</g>
<!-- etl&#45;&gt;etl&#45;postgres -->
<g id="edge4" class="edge">
<title>etl&#45;&gt;etl&#45;postgres</title>
<path fill="none" stroke="#4caf50" stroke-width="3" d="M522.4,-544.58C630.56,-494.33 785.72,-422.26 899.19,-369.55"/>
<polygon fill="#4caf50" stroke="#4caf50" stroke-width="3" points="900.4,-372.84 908,-365.45 897.45,-366.49 900.4,-372.84"/>
</g>
<!-- etl&#45;destinations -->
<g id="node5" class="node">
<title>etl&#45;destinations</title>
<polygon fill="#ff7043" stroke="black" points="459.62,-836.75 459.62,-1011.25 723.88,-1011.25 723.88,-836.75 459.62,-836.75"/>
<text xml:space="preserve" text-anchor="middle" x="591.75" y="-995.85" font-family="Arial" font-size="12.00" fill="white">etl&#45;destinations</text>
<polyline fill="none" stroke="black" points="459.62,-989 723.88,-989"/>
<text xml:space="preserve" text-anchor="middle" x="591.75" y="-973.6" font-family="Arial" font-size="12.00" fill="white">Cloud Destinations</text>
<polyline fill="none" stroke="black" points="459.62,-966.75 723.88,-966.75"/>
<text xml:space="preserve" text-anchor="start" x="467.62" y="-951.35" font-family="Arial" font-size="12.00" fill="white">Internal:</text>
<text xml:space="preserve" text-anchor="start" x="467.62" y="-937.1" font-family="Arial" font-size="12.00" fill="white">etl</text>
<polyline fill="none" stroke="black" points="459.62,-930.25 723.88,-930.25"/>
<text xml:space="preserve" text-anchor="start" x="467.62" y="-914.85" font-family="Arial" font-size="12.00" fill="white">External:</text>
<text xml:space="preserve" text-anchor="start" x="467.62" y="-900.6" font-family="Arial" font-size="12.00" fill="white">gcp&#45;bigquery&#45;client · prost · base64 (BigQuery)</text>
<text xml:space="preserve" text-anchor="start" x="467.62" y="-886.35" font-family="Arial" font-size="12.00" fill="white">iceberg · iceberg&#45;catalog&#45;rest · arrow</text>
<text xml:space="preserve" text-anchor="start" x="467.62" y="-872.1" font-family="Arial" font-size="12.00" fill="white">parquet · reqwest (Iceberg)</text>
<text xml:space="preserve" text-anchor="start" x="467.62" y="-857.85" font-family="Arial" font-size="12.00" fill="white">chrono · async&#45;trait · rustls · serde</text>
<text xml:space="preserve" text-anchor="start" x="467.62" y="-843.6" font-family="Arial" font-size="12.00" fill="white">serde_json · tokio · tracing · uuid</text>
</g>
<!-- etl&#45;destinations&#45;&gt;etl -->
<g id="edge5" class="edge">
<title>etl&#45;destinations&#45;&gt;etl</title>
<path fill="none" stroke="#fdd835" stroke-width="3" d="M537.92,-836.34C514.02,-797.87 485.67,-752.23 460.52,-711.76"/>
<polygon fill="#fdd835" stroke="#fdd835" stroke-width="3" points="463.65,-710.16 455.4,-703.51 457.71,-713.85 463.65,-710.16"/>
</g>
<!-- etl&#45;api -->
<g id="node6" class="node">
<title>etl&#45;api</title>
<polygon fill="#7e57c2" stroke="black" points="784.38,-482 784.38,-727.75 1029.12,-727.75 1029.12,-482 784.38,-482"/>
<text xml:space="preserve" text-anchor="middle" x="906.75" y="-712.35" font-family="Arial" font-size="12.00" fill="white">etl&#45;api</text>
<polyline fill="none" stroke="black" points="784.38,-705.5 1029.12,-705.5"/>
<text xml:space="preserve" text-anchor="middle" x="906.75" y="-690.1" font-family="Arial" font-size="12.00" fill="white">REST API Server</text>
<polyline fill="none" stroke="black" points="784.38,-683.25 1029.12,-683.25"/>
<text xml:space="preserve" text-anchor="start" x="792.38" y="-667.85" font-family="Arial" font-size="12.00" fill="white">Internal:</text>
<text xml:space="preserve" text-anchor="start" x="792.38" y="-653.6" font-family="Arial" font-size="12.00" fill="white">etl&#45;config · etl&#45;postgres · etl&#45;telemetry</text>
<polyline fill="none" stroke="black" points="784.38,-646.75 1029.12,-646.75"/>
<text xml:space="preserve" text-anchor="start" x="792.38" y="-631.35" font-family="Arial" font-size="12.00" fill="white">External:</text>
<text xml:space="preserve" text-anchor="start" x="792.38" y="-617.1" font-family="Arial" font-size="12.00" fill="white">actix&#45;web · actix&#45;web&#45;httpauth</text>
<text xml:space="preserve" text-anchor="start" x="792.38" y="-602.85" font-family="Arial" font-size="12.00" fill="white">actix&#45;web&#45;metrics · tracing&#45;actix&#45;web (Web)</text>
<text xml:space="preserve" text-anchor="start" x="792.38" y="-588.6" font-family="Arial" font-size="12.00" fill="white">utoipa · utoipa&#45;swagger&#45;ui (Docs)</text>
<text xml:space="preserve" text-anchor="start" x="792.38" y="-574.35" font-family="Arial" font-size="12.00" fill="white">kube · k8s&#45;openapi (K8s)</text>
<text xml:space="preserve" text-anchor="start" x="792.38" y="-560.1" font-family="Arial" font-size="12.00" fill="white">anyhow · async&#45;trait · aws&#45;lc&#45;rs · base64</text>
<text xml:space="preserve" text-anchor="start" x="792.38" y="-545.85" font-family="Arial" font-size="12.00" fill="white">chrono · constant_time_eq</text>
<text xml:space="preserve" text-anchor="start" x="792.38" y="-531.6" font-family="Arial" font-size="12.00" fill="white">metrics&#45;exporter&#45;prometheus · pg_escape</text>
<text xml:space="preserve" text-anchor="start" x="792.38" y="-517.35" font-family="Arial" font-size="12.00" fill="white">rand · reqwest · secrecy · sentry · serde</text>
<text xml:space="preserve" text-anchor="start" x="792.38" y="-503.1" font-family="Arial" font-size="12.00" fill="white">serde_json · sqlx · thiserror · tokio</text>
<text xml:space="preserve" text-anchor="start" x="792.38" y="-488.85" font-family="Arial" font-size="12.00" fill="white">tracing · uuid · insta(dev)</text>
</g>
<!-- etl&#45;api&#45;&gt;etl&#45;config -->
<g id="edge6" class="edge">
<title>etl&#45;api&#45;&gt;etl&#45;config</title>
<path fill="none" stroke="#2196f3" stroke-width="3" d="M857.69,-481.54C814.5,-373.84 753.09,-220.7 717.44,-131.79"/>
<polygon fill="#2196f3" stroke="#2196f3" stroke-width="3" points="720.71,-130.55 713.74,-122.57 714.21,-133.15 720.71,-130.55"/>
</g>
<!-- etl&#45;api&#45;&gt;etl&#45;postgres -->
<g id="edge7" class="edge">
<title>etl&#45;api&#45;&gt;etl&#45;postgres</title>
<path fill="none" stroke="#4caf50" stroke-width="3" d="M963.29,-481.56C978.1,-449.52 993.74,-415.68 1007.43,-386.06"/>
<polygon fill="#4caf50" stroke="#4caf50" stroke-width="3" points="1010.45,-387.88 1011.47,-377.33 1004.09,-384.94 1010.45,-387.88"/>
</g>
<!-- etl&#45;api&#45;&gt;etl&#45;telemetry -->
<g id="edge8" class="edge">
<title>etl&#45;api&#45;&gt;etl&#45;telemetry</title>
<path fill="none" stroke="#66bb6a" stroke-width="3" d="M784.17,-492.39C744.17,-456 700.52,-416.3 663.4,-382.54"/>
<polygon fill="#66bb6a" stroke="#66bb6a" stroke-width="3" points="666.22,-380.38 656.47,-376.24 661.51,-385.56 666.22,-380.38"/>
</g>
<!-- etl&#45;replicator -->
<g id="node7" class="node">
<title>etl&#45;replicator</title>
<polygon fill="#5e35b1" stroke="black" stroke-width="3" points="0,-1203.38 0,-1320.88 263.5,-1320.88 263.5,-1203.38 0,-1203.38"/>
<text xml:space="preserve" text-anchor="middle" x="131.75" y="-1305.47" font-family="Arial" font-size="12.00" fill="white">etl&#45;replicator ⚙</text>
<polyline fill="none" stroke="black" stroke-width="3" points="0,-1298.62 263.5,-1298.62"/>
<text xml:space="preserve" text-anchor="middle" x="131.75" y="-1283.22" font-family="Arial" font-size="12.00" fill="white">Main Binary</text>
<polyline fill="none" stroke="black" stroke-width="3" points="0,-1276.38 263.5,-1276.38"/>
<text xml:space="preserve" text-anchor="start" x="8" y="-1260.97" font-family="Arial" font-size="12.00" fill="white">Internal:</text>
<text xml:space="preserve" text-anchor="start" x="8" y="-1246.72" font-family="Arial" font-size="12.00" fill="white">etl · etl&#45;config · etl&#45;destinations · etl&#45;telemetry</text>
<polyline fill="none" stroke="black" stroke-width="3" points="0,-1239.88 263.5,-1239.88"/>
<text xml:space="preserve" text-anchor="start" x="8" y="-1224.47" font-family="Arial" font-size="12.00" fill="white">External:</text>
<text xml:space="preserve" text-anchor="start" x="8" y="-1210.22" font-family="Arial" font-size="12.00" fill="white">anyhow · secrecy · sentry · sqlx · tokio · tracing</text>
</g>
<!-- etl&#45;replicator&#45;&gt;etl&#45;config -->
<g id="edge10" class="edge">
<title>etl&#45;replicator&#45;&gt;etl&#45;config</title>
<path fill="none" stroke="#2196f3" stroke-width="3" d="M114.33,-1202.08C77.94,-1067.36 5.92,-729.72 115.75,-481.5 199.99,-291.12 421.83,-168.78 563.47,-107.45"/>
<polygon fill="#2196f3" stroke="#2196f3" stroke-width="3" points="564.5,-110.81 572.32,-103.66 561.75,-104.38 564.5,-110.81"/>
</g>
<!-- etl&#45;replicator&#45;&gt;etl&#45;telemetry -->
<g id="edge12" class="edge">
<title>etl&#45;replicator&#45;&gt;etl&#45;telemetry</title>
<path fill="none" stroke="#66bb6a" stroke-width="3" d="M122.25,-1201.93C103.22,-1062.47 74.66,-708.01 231.75,-481.5 280.74,-410.87 366.27,-365.74 439.53,-338.27"/>
<polygon fill="#66bb6a" stroke="#66bb6a" stroke-width="3" points="440.6,-341.61 448.79,-334.9 438.2,-335.03 440.6,-341.61"/>
</g>
<!-- etl&#45;replicator&#45;&gt;etl -->
<g id="edge9" class="edge">
<title>etl&#45;replicator&#45;&gt;etl</title>
<path fill="none" stroke="#fdd835" stroke-width="3" d="M155.44,-1202.11C199.78,-1091.64 295.87,-852.22 351.87,-712.71"/>
<polygon fill="#fdd835" stroke="#fdd835" stroke-width="3" points="354.99,-714.32 355.47,-703.74 348.5,-711.72 354.99,-714.32"/>
</g>
<!-- etl&#45;replicator&#45;&gt;etl&#45;destinations -->
<g id="edge11" class="edge">
<title>etl&#45;replicator&#45;&gt;etl&#45;destinations</title>
<path fill="none" stroke="#ff7043" stroke-width="3" d="M212.67,-1202C281.47,-1151.73 381.54,-1078.6 461.59,-1020.11"/>
<polygon fill="#ff7043" stroke="#ff7043" stroke-width="3" points="463.57,-1023 469.58,-1014.27 459.44,-1017.34 463.57,-1023"/>
</g>
<!-- etl&#45;examples -->
<g id="node8" class="node">
<title>etl&#45;examples</title>
<polygon fill="#9e9e9e" stroke="black" points="407.5,-1203.38 407.5,-1320.88 632,-1320.88 632,-1203.38 407.5,-1203.38"/>
<text xml:space="preserve" text-anchor="middle" x="519.75" y="-1305.47" font-family="Arial" font-size="12.00" fill="white">etl&#45;examples</text>
<polyline fill="none" stroke="black" points="407.5,-1298.62 632,-1298.62"/>
<text xml:space="preserve" text-anchor="middle" x="519.75" y="-1283.22" font-family="Arial" font-size="12.00" fill="white">Usage Examples</text>
<polyline fill="none" stroke="black" points="407.5,-1276.38 632,-1276.38"/>
<text xml:space="preserve" text-anchor="start" x="415.5" y="-1260.97" font-family="Arial" font-size="12.00" fill="white">Internal:</text>
<text xml:space="preserve" text-anchor="start" x="415.5" y="-1246.72" font-family="Arial" font-size="12.00" fill="white">etl · etl&#45;destinations</text>
<polyline fill="none" stroke="black" points="407.5,-1239.88 632,-1239.88"/>
<text xml:space="preserve" text-anchor="start" x="415.5" y="-1224.47" font-family="Arial" font-size="12.00" fill="white">External:</text>
<text xml:space="preserve" text-anchor="start" x="415.5" y="-1210.22" font-family="Arial" font-size="12.00" fill="white">clap · tokio · tracing · tracing&#45;subscriber</text>
</g>
<!-- etl&#45;examples&#45;&gt;etl -->
<g id="edge13" class="edge">
<title>etl&#45;examples&#45;&gt;etl</title>
<path fill="none" stroke="#fdd835" stroke-width="3" d="M491.79,-1203.2C469.25,-1153.61 438.9,-1079.67 423.75,-1011.75 401.63,-912.56 395.21,-796.67 393.84,-714.18"/>
<polygon fill="#fdd835" stroke="#fdd835" stroke-width="3" points="397.34,-714.19 393.7,-704.24 390.34,-714.28 397.34,-714.19"/>
</g>
<!-- etl&#45;examples&#45;&gt;etl&#45;destinations -->
<g id="edge14" class="edge">
<title>etl&#45;examples&#45;&gt;etl&#45;destinations</title>
<path fill="none" stroke="#ff7043" stroke-width="3" d="M532.21,-1202.96C542.66,-1154.18 557.82,-1083.41 570.22,-1025.49"/>
<polygon fill="#ff7043" stroke="#ff7043" stroke-width="3" points="573.61,-1026.39 572.28,-1015.88 566.77,-1024.93 573.61,-1026.39"/>
</g>
<!-- etl&#45;benchmarks -->
<g id="node9" class="node">
<title>etl&#45;benchmarks</title>
<polygon fill="#757575" stroke="black" points="889.75,-1196.25 889.75,-1328 1067.75,-1328 1067.75,-1196.25 889.75,-1196.25"/>
<text xml:space="preserve" text-anchor="middle" x="978.75" y="-1312.6" font-family="Arial" font-size="12.00" fill="white">etl&#45;benchmarks</text>
<polyline fill="none" stroke="black" points="889.75,-1305.75 1067.75,-1305.75"/>
<text xml:space="preserve" text-anchor="middle" x="978.75" y="-1290.35" font-family="Arial" font-size="12.00" fill="white">Performance Tests</text>
<polyline fill="none" stroke="black" points="889.75,-1283.5 1067.75,-1283.5"/>
<text xml:space="preserve" text-anchor="start" x="897.75" y="-1268.1" font-family="Arial" font-size="12.00" fill="white">Internal (dev):</text>
<text xml:space="preserve" text-anchor="start" x="897.75" y="-1253.85" font-family="Arial" font-size="12.00" fill="white">etl · etl&#45;config · etl&#45;destinations</text>
<text xml:space="preserve" text-anchor="start" x="897.75" y="-1239.6" font-family="Arial" font-size="12.00" fill="white">etl&#45;postgres · etl&#45;telemetry</text>
<polyline fill="none" stroke="black" points="889.75,-1232.75 1067.75,-1232.75"/>
<text xml:space="preserve" text-anchor="start" x="897.75" y="-1217.35" font-family="Arial" font-size="12.00" fill="white">External (dev):</text>
<text xml:space="preserve" text-anchor="start" x="897.75" y="-1203.1" font-family="Arial" font-size="12.00" fill="white">clap · sqlx · tokio · tracing</text>
</g>
<!-- etl&#45;benchmarks&#45;&gt;etl&#45;config -->
<g id="edge16" class="edge">
<title>etl&#45;benchmarks&#45;&gt;etl&#45;config</title>
<path fill="none" stroke="#2196f3" stroke-width="2" stroke-dasharray="5,2" d="M1026.15,-1196.05C1147.17,-1021.32 1442.55,-534.32 1216.75,-226.5 1168.71,-161.01 953.94,-109.53 813.54,-82.1"/>
<polygon fill="#2196f3" stroke="#2196f3" stroke-width="2" points="814.5,-78.72 804.01,-80.26 813.17,-85.6 814.5,-78.72"/>
</g>
<!-- etl&#45;benchmarks&#45;&gt;etl&#45;postgres -->
<g id="edge18" class="edge">
<title>etl&#45;benchmarks&#45;&gt;etl&#45;postgres</title>
<path fill="none" stroke="#4caf50" stroke-width="2" stroke-dasharray="5,2" d="M995.17,-1195.87C1007.28,-1145.78 1023.39,-1074.75 1033.75,-1011.75 1072.06,-778.81 1076.48,-717.28 1064.75,-481.5 1063.2,-450.26 1060.14,-416.1 1056.98,-385.98"/>
<polygon fill="#4caf50" stroke="#4caf50" stroke-width="2" points="1060.49,-385.91 1055.95,-376.35 1053.53,-386.66 1060.49,-385.91"/>
</g>
<!-- etl&#45;benchmarks&#45;&gt;etl&#45;telemetry -->
<g id="edge19" class="edge">
<title>etl&#45;benchmarks&#45;&gt;etl&#45;telemetry</title>
<path fill="none" stroke="#66bb6a" stroke-width="2" stroke-dasharray="5,2" d="M974.63,-1196.01C966.52,-1108.39 942.62,-950.36 872.75,-836.25 834.59,-773.92 791.3,-787.67 748.75,-728.25 672.3,-621.51 622.04,-476.45 595.75,-385.81"/>
<polygon fill="#66bb6a" stroke="#66bb6a" stroke-width="2" points="599.15,-384.95 593.03,-376.3 592.42,-386.88 599.15,-384.95"/>
</g>
<!-- etl&#45;benchmarks&#45;&gt;etl -->
<g id="edge15" class="edge">
<title>etl&#45;benchmarks&#45;&gt;etl</title>
<path fill="none" stroke="#fdd835" stroke-width="2" stroke-dasharray="5,2" d="M957.54,-1196.03C925.88,-1106.65 859.13,-944.69 759.75,-836.25 724.79,-798.11 621.34,-734.08 533.46,-683.19"/>
<polygon fill="#fdd835" stroke="#fdd835" stroke-width="2" points="535.31,-680.22 524.9,-678.25 531.81,-686.28 535.31,-680.22"/>
</g>
<!-- etl&#45;benchmarks&#45;&gt;etl&#45;destinations -->
<g id="edge17" class="edge">
<title>etl&#45;benchmarks&#45;&gt;etl&#45;destinations</title>
<path fill="none" stroke="#ff7043" stroke-width="2" stroke-dasharray="5,2" d="M903.67,-1195.92C846.18,-1145.98 766.02,-1076.36 701.36,-1020.2"/>
<polygon fill="#ff7043" stroke="#ff7043" stroke-width="2" points="703.66,-1017.56 693.81,-1013.64 699.07,-1022.84 703.66,-1017.56"/>
</g>
<!-- legend -->
<g id="node10" class="node">
<title>legend</title>
<polygon fill="#e0e0e0" stroke="none" points="1148.12,-1370.5 1148.12,-1400.5 1435.38,-1400.5 1435.38,-1370.5 1148.12,-1370.5"/>
<polygon fill="none" stroke="black" points="1148.12,-1370.5 1148.12,-1400.5 1435.38,-1400.5 1435.38,-1370.5 1148.12,-1370.5"/>
<text xml:space="preserve" text-anchor="start" x="1274.5" y="-1383" font-family="Arial" font-weight="bold" font-size="10.00">Legend</text>
<polygon fill="none" stroke="black" points="1148.12,-1316.5 1148.12,-1370.5 1233.62,-1370.5 1233.62,-1316.5 1148.12,-1316.5"/>
<text xml:space="preserve" text-anchor="start" x="1157.12" y="-1341" font-family="Arial" font-weight="bold" font-size="10.00">Box Structure:</text>
<polygon fill="none" stroke="black" points="1233.62,-1316.5 1233.62,-1370.5 1435.38,-1370.5 1435.38,-1316.5 1233.62,-1316.5"/>
<text xml:space="preserve" text-anchor="start" x="1253.12" y="-1352" font-family="Arial" font-size="10.00">Top = Crate name &amp; purpose</text>
<text xml:space="preserve" text-anchor="start" x="1242.62" y="-1340" font-family="Arial" font-size="10.00">Middle = Internal workspace deps</text>
<text xml:space="preserve" text-anchor="start" x="1244.88" y="-1328" font-family="Arial" font-size="10.00">Bottom = External dependencies</text>
<polygon fill="none" stroke="black" points="1148.12,-1262.5 1148.12,-1316.5 1233.62,-1316.5 1233.62,-1262.5 1148.12,-1262.5"/>
<text xml:space="preserve" text-anchor="start" x="1157.12" y="-1287" font-family="Arial" font-weight="bold" font-size="10.00">Colors:</text>
<polygon fill="none" stroke="black" points="1233.62,-1262.5 1233.62,-1316.5 1435.38,-1316.5 1435.38,-1262.5 1233.62,-1262.5"/>
<text xml:space="preserve" text-anchor="start" x="1242.62" y="-1298" font-family="Arial" font-size="10.00">Blue = Foundation | Green = Infrastructure</text>
<text xml:space="preserve" text-anchor="start" x="1255" y="-1286" font-family="Arial" font-size="10.00">Yellow = Core | Orange = Integration</text>
<text xml:space="preserve" text-anchor="start" x="1252.75" y="-1274" font-family="Arial" font-size="10.00">Purple = Applications | Gray = Tooling</text>
<polygon fill="none" stroke="black" points="1148.12,-1220.5 1148.12,-1262.5 1233.62,-1262.5 1233.62,-1220.5 1148.12,-1220.5"/>
<text xml:space="preserve" text-anchor="start" x="1157.12" y="-1239" font-family="Arial" font-weight="bold" font-size="10.00">Arrows:</text>
<polygon fill="none" stroke="black" points="1233.62,-1220.5 1233.62,-1262.5 1435.38,-1262.5 1435.38,-1220.5 1233.62,-1220.5"/>
<text xml:space="preserve" text-anchor="start" x="1242.62" y="-1244" font-family="Arial" font-size="10.00">Thick colored = Workspace dependency</text>
<text xml:space="preserve" text-anchor="start" x="1270.38" y="-1232" font-family="Arial" font-size="10.00">Dashed = Dev dependency</text>
<polygon fill="none" stroke="black" points="1148.12,-1165.75 1148.12,-1220.5 1233.62,-1220.5 1233.62,-1165.75 1148.12,-1165.75"/>
<text xml:space="preserve" text-anchor="start" x="1157.12" y="-1190.62" font-family="Arial" font-weight="bold" font-size="10.00">Symbols:</text>
<polygon fill="none" stroke="black" points="1233.62,-1165.75 1233.62,-1220.5 1435.38,-1220.5 1435.38,-1165.75 1233.62,-1165.75"/>
<text xml:space="preserve" text-anchor="start" x="1259.88" y="-1202" font-family="Arial" font-size="10.00">⚙ = Main binary | (opt) = Optional</text>
<text xml:space="preserve" text-anchor="start" x="1242.62" y="-1190" font-family="Arial" font-size="10.00">(dev) = Dev only | (Materialize) = Git fork</text>
<text xml:space="preserve" text-anchor="start" x="1250.5" y="-1178" font-family="Arial" font-size="10.00">— = No dependencies | · = Separator</text>
<polygon fill="none" stroke="black" points="1148.12,-1123.75 1148.12,-1165.75 1233.62,-1165.75 1233.62,-1123.75 1148.12,-1123.75"/>
<text xml:space="preserve" text-anchor="start" x="1157.12" y="-1142.25" font-family="Arial" font-weight="bold" font-size="10.00">Stats:</text>
<polygon fill="none" stroke="black" points="1233.62,-1123.75 1233.62,-1165.75 1435.38,-1165.75 1435.38,-1123.75 1233.62,-1123.75"/>
<text xml:space="preserve" text-anchor="start" x="1242.62" y="-1147.25" font-family="Arial" font-size="10.00">9 workspace crates | ~90 direct external</text>
<text xml:space="preserve" text-anchor="start" x="1279.38" y="-1135.25" font-family="Arial" font-size="10.00">695 total with transitive</text>
</g>
</g>
</svg>
